<svg width="500" height="500" viewBox="0 0 500 500" fill="none" xmlns="http://www.w3.org/2000/svg">
<path d="M125 145.833H229.167C234.692 145.833 239.991 148.028 243.898 151.935C247.805 155.842 250 161.141 250 166.667C250 172.192 247.805 177.491 243.898 181.398C239.991 185.305 234.692 187.5 229.167 187.5H125C119.475 187.5 114.176 185.305 110.269 181.398C106.362 177.491 104.167 172.192 104.167 166.667C104.167 161.141 106.362 155.842 110.269 151.935C114.176 148.028 119.475 145.833 125 145.833V145.833ZM270.833 312.5H375C380.525 312.5 385.824 314.695 389.731 318.602C393.638 322.509 395.833 327.808 395.833 333.333C395.833 338.859 393.638 344.158 389.731 348.065C385.824 351.972 380.525 354.167 375 354.167H270.833C265.308 354.167 260.009 351.972 256.102 348.065C252.195 344.158 250 338.859 250 333.333C250 327.808 252.195 322.509 256.102 318.602C260.009 314.695 265.308 312.5 270.833 312.5ZM125 229.167H375C380.525 229.167 385.824 231.362 389.731 235.269C393.638 239.176 395.833 244.475 395.833 250C395.833 255.525 393.638 260.824 389.731 264.731C385.824 268.638 380.525 270.833 375 270.833H125C119.475 270.833 114.176 268.638 110.269 264.731C106.362 260.824 104.167 255.525 104.167 250C104.167 244.475 106.362 239.176 110.269 235.269C114.176 231.362 119.475 229.167 125 229.167V229.167Z" fill="white"/>
</svg>
